<svg width="52" height="64" viewBox="0 0 52 64" fill="none" xmlns="http://www.w3.org/2000/svg">
<path d="M49.7298 64H2.26984C1.47984 64 0.839844 63.36 0.839844 62.57V1.43C0.839844 0.64 1.47984 0 2.26984 0H34.9698C35.3498 0 35.7098 0.15 35.9698 0.41L50.7298 14.93C50.9998 15.2 51.1598 15.57 51.1598 15.95V62.56C51.1598 63.36 50.5198 64 49.7298 64ZM3.69984 61.13H48.2998V16.56L34.3798 2.87H3.69984V61.13Z" fill="#C3C3C3"/>
<path d="M49.73 17.39H34.97C34.18 17.39 33.54 16.75 33.54 15.96V1.43C33.54 0.85 33.89 0.33 34.42 0.11C34.95 -0.11 35.57 3.8743e-07 35.98 0.41L50.74 14.93C51.15 15.34 51.28 15.96 51.06 16.49C50.84 17.04 50.31 17.39 49.73 17.39ZM36.4 14.52H46.23L36.4 4.85V14.52Z" fill="#C3C3C3"/>
<path d="M25.9998 27.05H9.93976C9.14976 27.05 8.50977 26.41 8.50977 25.62V9.55C8.50977 8.76 9.14976 8.12 9.93976 8.12H25.9998C26.7898 8.12 27.4298 8.76 27.4298 9.55V25.61C27.4298 26.41 26.7898 27.05 25.9998 27.05ZM11.3698 24.18H24.5698V10.98H11.3698V24.18ZM25.9998 55.47H9.93976C9.14976 55.47 8.50977 54.83 8.50977 54.04V37.98C8.50977 37.19 9.14976 36.55 9.93976 36.55H25.9998C26.7898 36.55 27.4298 37.19 27.4298 37.98V54.04C27.4298 54.83 26.7898 55.47 25.9998 55.47ZM11.3698 52.61H24.5698V39.41H11.3698V52.61ZM42.3498 33.23H9.93976C9.14976 33.23 8.50977 32.59 8.50977 31.8C8.50977 31.01 9.14976 30.37 9.93976 30.37H42.3498C43.1398 30.37 43.7798 31.01 43.7798 31.8C43.7798 32.59 43.1398 33.23 42.3498 33.23ZM41.9498 42.82H30.7798C29.9898 42.82 29.3498 42.18 29.3498 41.39C29.3498 40.6 29.9898 39.96 30.7798 39.96H41.9498C42.7398 39.96 43.3798 40.6 43.3798 41.39C43.3798 42.18 42.7398 42.82 41.9498 42.82ZM41.9498 52.09H30.7798C29.9898 52.09 29.3498 51.45 29.3498 50.66C29.3498 49.87 29.9898 49.23 30.7798 49.23H41.9498C42.7398 49.23 43.3798 49.87 43.3798 50.66C43.3798 51.45 42.7398 52.09 41.9498 52.09Z" fill="#607D8B"/>
</svg>
