<svg width="45" height="44" viewBox="0 0 45 44" fill="none" xmlns="http://www.w3.org/2000/svg">
<path d="M24 0.000488281C23.446 0.000488281 23 0.446488 23 1.00049V2.00049C23 2.55449 23.446 3.00049 24 3.00049H34.0039L34.0199 9.48486C34.0199 10.3102 34.6907 10.9787 35.516 10.981L42.0004 10.998V39.5C42.0004 40.3569 41.3573 41 40.5004 41H17.5004C16.6434 41 16.0004 40.3569 16.0004 39.5V38C16.0004 37.446 15.5544 37 15.0004 37H14.0004C13.4464 37 13.0004 37.446 13.0004 38V39.5C13.0004 41.9671 15.0333 44 17.5004 44H40.5004C42.9674 44 45.0004 41.9671 45.0004 39.5V9.01367C45.0003 8.61587 44.8422 8.23443 44.5609 7.95312L37.0472 0.439453C36.766 0.158053 36.3845 0.0001 35.9867 0L24 0.000488281ZM13 21.0005C13 21.5545 13.446 22.0005 14 22.0005H15C15.554 22.0005 16 21.5545 16 21.0005V11.0005C16 10.4465 15.554 10.0005 15 10.0005H14C13.446 10.0005 13 10.4465 13 11.0005V21.0005Z" fill="#C4C4C4"/>
<path d="M17.5 0.000366211C15.033 0.000366211 13 2.03327 13 4.50037V7.00037C13 7.55437 13.446 8.00037 14 8.00037H15C15.554 8.00037 16 7.55437 16 7.00037V4.50037C16 3.64347 16.6431 3.00037 17.5 3.00037H20C20.554 3.00037 21 2.55437 21 2.00037V1.00037C21 0.446366 20.554 0.000366211 20 0.000366211H17.5ZM2 24.0004C0.892 24.0004 0 24.8924 0 26.0004V33.0004C0 34.1084 0.892 35.0004 2 35.0004H27C28.108 35.0004 29 34.1084 29 33.0004V26.0004C29 24.8924 28.108 24.0004 27 24.0004H2ZM20.0684 26.5883C20.5172 26.5883 20.946 26.6924 21.4043 26.8929C21.5189 26.6829 21.624 26.598 21.834 26.598C22.13 26.598 22.2637 26.7223 22.2637 27.1234L22.2737 28.3344C22.2737 28.7354 22.1767 28.8793 21.7855 28.8793C21.499 28.8793 21.3851 28.7358 21.2991 28.4398C21.1463 27.8955 20.8694 27.6097 20.1819 27.6097C19.2366 27.6097 18.7015 28.2591 18.7015 29.5004C18.7015 30.7417 19.274 31.4203 20.2288 31.4203C20.4676 31.4203 20.7643 31.3612 21.1176 31.2562V30.5316H20.592C20.2005 30.5316 20.0101 30.4075 20.0101 30.016C20.0101 29.6245 20.2005 29.5004 20.592 29.5004H22.2737C22.6652 29.5004 22.8655 29.6051 22.8655 30.0062C22.8655 30.3404 22.6841 30.5219 22.3499 30.5219H22.2739V31.6293V31.6859C22.2739 31.8577 22.2639 31.9141 22.1118 32.0101C21.854 32.1629 21.0606 32.4124 20.0962 32.4124C18.4538 32.4124 17.356 31.2191 17.356 29.5003C17.356 27.8675 18.4738 26.5883 20.0684 26.5883ZM12.4805 26.7406H14.4102C15.9475 26.7406 16.7207 27.3424 16.7207 28.4691C16.7207 29.6627 15.9475 30.2933 14.4102 30.2933H13.6172V31.2465H14.0859C14.4679 31.2465 14.6582 31.3704 14.6582 31.7523C14.6582 32.1343 14.4679 32.2679 14.0859 32.2679H12.4805C12.0985 32.2679 11.9082 32.1343 11.9082 31.7523C11.9082 31.4277 12.0892 31.2465 12.4043 31.2465H12.4803V27.7719H12.4143C12.0897 27.7719 11.9084 27.5904 11.9084 27.2562C11.9084 26.8838 12.0985 26.7406 12.4805 26.7406ZM8.19727 26.7506H10.5742C10.9657 26.7506 11.166 26.8554 11.166 27.2565C11.166 27.648 10.9657 27.7623 10.5742 27.7623H10.1836V30.3502V30.4361C10.1836 30.9995 10.1736 31.4469 9.83008 31.8384C9.50538 32.2108 8.90323 32.4127 8.08203 32.4127C7.49003 32.4127 6.96552 32.3078 6.47852 32.0787C6.22972 31.9641 6.13477 31.8295 6.13477 31.3521V30.3873C6.13477 29.8908 6.25932 29.6724 6.66992 29.6724C7.13782 29.6724 7.08872 30.0353 7.13672 30.4459C7.20372 31.0761 7.35682 31.3814 8.01562 31.3814C8.78913 31.3814 8.9707 30.9704 8.9707 30.0728V27.772H8.19727C7.80577 27.772 7.60547 27.6479 7.60547 27.2564C7.60547 26.8649 7.80577 26.7506 8.19727 26.7506ZM13.6172 27.8092V29.2428H14.2754C15.0107 29.2428 15.3828 28.9841 15.3828 28.5162C15.3828 28.0483 15.0107 27.8092 14.2754 27.8092H13.6172Z" fill="#607D8B"/>
</svg>
